<svg xmlns="http://www.w3.org/2000/svg" viewBox="0 0 512 512">
  <defs>
    <linearGradient id="grad" x1="0%" y1="0%" x2="100%" y2="100%">
      <stop offset="0%" style="stop-color:#6366f1;stop-opacity:1" />
      <stop offset="100%" style="stop-color:#ec4899;stop-opacity:1" />
    </linearGradient>
  </defs>
  <rect width="512" height="512" rx="120" fill="url(#grad)" />
  <path d="M256 120L64 216l192 96 192-96-192-96zm0 0v0zm-32 248v-64l-96-48v96c0 35.3 57.3 64 128 64s128-28.7 128-64v-96l-96 48v64c0 17.7-14.3 32-32 32s-32-14.3-32-32z" fill="#ffffff"/>
  <path d="M432 216v96c0 17.7 14.3 32 32 32s32-14.3 32-32v-96c0-8.8-7.2-16-16-16s-16 7.2-16 16z" fill="#fbcfe8"/>
  <path d="M256 360c-44.2 0-80-35.8-80-80s35.8-80 80-80 80 35.8 80 80-35.8 80-80 80zm0-120c-22.1 0-40 17.9-40 40s17.9 40 40 40 40-17.9 40-40-17.9-40-40-40z" fill="#ffffff" opacity="0.2"/>
</svg>
